<?xml version="1.0" standalone="no"?>
<svg xmlns="http://www.w3.org/2000/svg" width="16" height="16" viewBox="0 0 24 24">
    <defs>
        <linearGradient id="linear-grad">
            <stop offset="0" stop-color="#96be78"/>
            <stop offset="1" stop-color="#ffc86e"/>
        </linearGradient>
    </defs>
    <g fill="url(#linear-grad)" stroke="none">
        <path d="M 15.238281 6.902344 C 14.480469 7.074219 13.472656 8.039062 12.425781 9.566406 C 12.117188 10.019531 11.839844 10.402344 11.8125 10.402344 C 11.777344 10.386719 11.535156 10.089844 11.277344 9.722656 C 10.3125 8.347656 9.042969 7.277344 8.0625 7.003906 C 7.402344 6.820312 6.351562 6.910156 5.746094 7.199219 C 5.089844 7.519531 4.316406 8.300781 3.878906 9.097656 C 3.519531 9.75 3.019531 11.152344 3.113281 11.238281 C 3.140625 11.269531 3.351562 11.222656 3.589844 11.136719 C 3.972656 11.011719 4.089844 11.011719 4.628906 11.152344 C 4.96875 11.238281 5.261719 11.332031 5.277344 11.347656 C 5.308594 11.378906 5.503906 11.039062 5.714844 10.613281 C 6.140625 9.738281 6.527344 9.339844 7.050781 9.238281 C 7.753906 9.113281 8.71875 9.867188 10.019531 11.574219 L 10.722656 12.492188 L 10.261719 13.191406 C 9.269531 14.671875 7.996094 15.398438 6.910156 15.097656 C 6.394531 14.957031 5.746094 14.402344 5.578125 13.941406 L 5.460938 13.597656 L 4.332031 13.597656 C 3.566406 13.597656 3.199219 13.640625 3.199219 13.710938 C 3.199219 13.769531 3.355469 14.121094 3.550781 14.488281 C 4.5 16.289062 5.929688 17.179688 7.699219 17.082031 C 8.300781 17.039062 8.574219 16.980469 8.917969 16.769531 C 9.527344 16.417969 10.246094 15.597656 10.949219 14.503906 C 11.269531 13.996094 11.558594 13.617188 11.601562 13.667969 C 11.628906 13.710938 11.957031 14.132812 12.324219 14.601562 C 13.738281 16.441406 14.644531 17.019531 16.101562 17.039062 C 16.722656 17.050781 16.949219 16.996094 17.433594 16.78125 C 18.128906 16.449219 18.917969 15.667969 19.429688 14.800781 C 19.785156 14.167969 20.402344 12.492188 20.402344 12.113281 C 20.402344 11.929688 20.363281 11.929688 20.027344 12.019531 C 19.824219 12.082031 19.3125 12.128906 18.890625 12.140625 L 18.117188 12.152344 L 18.011719 12.652344 C 17.644531 14.300781 16.730469 15.070312 15.660156 14.660156 C 15.113281 14.449219 14.050781 13.488281 13.242188 12.464844 L 12.609375 11.671875 L 13.105469 10.941406 C 14.082031 9.539062 15.128906 8.800781 16.175781 8.800781 L 16.699219 8.800781 L 16.699219 7.898438 C 16.699219 7.261719 16.660156 6.980469 16.582031 6.960938 C 16.277344 6.863281 15.519531 6.832031 15.238281 6.902344 Z M 15.238281 6.902344 "/>
        <path d="M 18.800781 7.171875 C 18.117188 7.429688 17.628906 8.238281 17.742188 8.941406 C 17.980469 10.417969 19.980469 10.808594 20.730469 9.519531 C 21 9.070312 20.988281 8.308594 20.714844 7.855469 C 20.363281 7.300781 19.386719 6.949219 18.800781 7.171875 Z M 18.800781 7.171875 "/>
    </g>
</svg>