<?xml version="1.0" standalone="no"?>
<svg xmlns="http://www.w3.org/2000/svg" width="16" height="16" viewBox="0 0 24 24">
    <g fill="#2e8555" stroke="none">
        <path d="M 16.199219 5.6875 C 15.785156 5.789062 15.285156 6.019531 14.972656 6.257812 C 14.179688 6.867188 13.042969 8.1875 12.277344 9.40625 C 12.054688 9.765625 11.832031 10.0625 11.789062 10.0625 C 11.695312 10.0625 11.363281 9.683594 11.355469 9.574219 C 11.355469 9.488281 10.800781 8.769531 10.21875 8.085938 C 9.710938 7.496094 8.621094 6.5625 8.113281 6.285156 C 5.851562 5.078125 3.5625 5.863281 2.039062 8.382812 C 1.558594 9.175781 0.921875 11.078125 1.144531 11.078125 C 1.164062 11.078125 1.328125 11.011719 1.503906 10.9375 C 1.957031 10.753906 2.363281 10.761719 3.148438 10.984375 C 3.8125 11.167969 3.96875 11.160156 3.96875 10.957031 C 3.96875 10.890625 4.109375 10.550781 4.28125 10.191406 C 4.855469 8.980469 5.574219 8.417969 6.324219 8.585938 C 6.949219 8.722656 7.300781 8.953125 8.125 9.773438 C 8.933594 10.597656 9.167969 10.863281 9.96875 11.933594 L 10.441406 12.554688 L 10.179688 12.996094 C 8.511719 15.90625 6.007812 16.773438 4.441406 14.992188 C 4.238281 14.761719 4.042969 14.445312 4.015625 14.296875 L 3.949219 14.03125 L 2.574219 14.03125 C 1.789062 14.03125 1.199219 14.066406 1.199219 14.113281 C 1.199219 14.160156 1.375 14.546875 1.585938 14.964844 C 1.984375 15.746094 2.519531 16.46875 3.121094 17.03125 C 3.574219 17.457031 4.597656 17.992188 5.253906 18.148438 C 6.269531 18.386719 7.660156 18.238281 8.226562 17.824219 C 8.363281 17.714844 8.519531 17.628906 8.566406 17.628906 C 8.6875 17.628906 9.757812 16.457031 10.164062 15.894531 C 10.339844 15.644531 10.671875 15.121094 10.890625 14.730469 C 11.113281 14.34375 11.335938 14.03125 11.390625 14.03125 C 11.445312 14.03125 11.898438 14.539062 12.386719 15.15625 C 14.039062 17.253906 14.804688 17.832031 16.320312 18.136719 C 17.023438 18.285156 17.132812 18.285156 17.75 18.148438 C 18.359375 18.007812 19.078125 17.695312 19.457031 17.410156 C 20.226562 16.828125 21.183594 15.480469 21.675781 14.289062 C 21.960938 13.605469 22.394531 12.019531 22.3125 11.945312 C 22.292969 11.925781 22.089844 11.972656 21.867188 12.046875 C 21.609375 12.136719 21.121094 12.195312 20.527344 12.203125 L 19.597656 12.203125 L 19.347656 13.035156 C 18.847656 14.621094 18.386719 15.230469 17.5 15.453125 C 17.160156 15.535156 16.394531 15.304688 15.859375 14.953125 C 15.15625 14.492188 13.71875 12.96875 13.035156 11.980469 L 12.746094 11.566406 L 13.273438 10.789062 C 13.71875 10.125 14.804688 8.933594 15.238281 8.628906 C 15.710938 8.296875 16.347656 8.09375 17.011719 8.050781 L 17.722656 8.003906 L 17.722656 5.832031 L 17.335938 5.769531 C 16.625 5.660156 16.382812 5.648438 16.199219 5.6875 Z M 16.199219 5.6875 "/>
        <path d="M 20.308594 6.136719 C 20.179688 6.210938 19.992188 6.304688 19.890625 6.359375 C 18.976562 6.792969 18.847656 8.628906 19.671875 9.386719 C 20.425781 10.078125 21.839844 10.035156 22.484375 9.296875 C 22.761719 8.980469 22.808594 8.890625 22.9375 8.390625 C 23.160156 7.558594 22.726562 6.628906 21.933594 6.230469 C 21.40625 5.964844 20.675781 5.925781 20.308594 6.136719 Z M 20.308594 6.136719 "/>
    </g>
</svg>